<?xml version="1.0" standalone="no"?>
<!DOCTYPE svg PUBLIC "-//W3C//DTD SVG 20010904//EN"
 "http://www.w3.org/TR/2001/REC-SVG-20010904/DTD/svg10.dtd">
<svg version="1.0" xmlns="http://www.w3.org/2000/svg"
 width="256.000000pt" height="166.000000pt" viewBox="0 0 256.000000 166.000000"
 preserveAspectRatio="xMidYMid meet">

<g transform="translate(0.000000,166.000000) scale(0.100000,-0.100000)"
fill="#000000" stroke="none">
<path d="M647 1623 c332 -2 874 -2 1205 0 332 1 61 2 -602 2 -663 0 -934 -1
-603 -2z"/>
<path d="M2460 865 l-5 -760 -1207 -3 -1208 -2 -3 752 -2 753 0 -755 0 -755
1213 -3 c965 -2 1214 0 1217 10 3 7 4 353 3 768 l-3 755 -5 -760z"/>
<path d="M57 1603 c-4 -3 -7 -341 -7 -750 l0 -743 1200 0 1200 0 -2 748 -3
747 -1191 3 c-655 1 -1194 -1 -1197 -5z m2363 -743 l0 -720 -1170 0 -1170 0 0
720 0 720 1170 0 1170 0 0 -720z"/>
<path d="M1209 1563 c-1 -5 -2 -35 -3 -68 l-1 -59 -73 -13 c-98 -16 -158 -37
-226 -78 l-57 -34 -112 84 c-62 46 -118 89 -125 95 -7 7 -20 9 -29 6 -11 -5
22 -33 110 -96 69 -50 129 -95 133 -101 3 -6 -5 -23 -19 -37 -37 -41 -60 -91
-67 -147 l-5 -50 -173 -3 c-109 -1 -171 -6 -167 -12 8 -14 1702 -14 1710 0 4
6 -63 11 -182 12 l-188 3 -5 50 c-6 53 -29 106 -62 142 -11 12 -19 26 -17 31
6 14 163 129 232 169 31 19 55 38 52 44 -6 9 -75 -32 -159 -93 -23 -16 -65
-47 -95 -68 l-53 -39 -32 24 c-73 56 -224 104 -323 105 l-43 0 0 70 c0 40 -4
70 -10 70 -5 0 -10 -3 -11 -7z"/>
<path d="M644 869 c-40 -4 -77 -15 -107 -32 -44 -26 -97 -79 -97 -98 0 -20 32
-7 61 25 16 19 53 46 81 60 79 39 170 36 410 -15 346 -74 385 -80 563 -85 169
-5 283 7 433 45 63 17 172 62 172 72 0 16 -36 10 -93 -16 -72 -31 -147 -51
-274 -70 -218 -32 -379 -16 -823 83 -145 33 -229 41 -326 31z"/>
</g>
</svg>
